<svg xmlns="http://www.w3.org/2000/svg" width="820" height="278" viewBox="0 0 820 278">
<rect x="0.0" y="0.0" width="820.0" height="278.0" fill="#FAFAFA" rx="0" opacity="1.00"/>
<text x="410.0" y="28.0" text-anchor="middle" font-family="sans-serif" font-size="15" font-weight="bold" fill="#333333">BatchInsertBenchmark — ms/op</text>
<rect x="240.0" y="38.0" width="14.0" height="14.0" fill="#4A90D9" rx="2" opacity="1.00"/>
<text x="258.0" y="48.0" text-anchor="start" font-family="sans-serif" font-size="11" font-weight="normal" fill="#333333">sync</text>
<rect x="310.0" y="38.0" width="14.0" height="14.0" fill="#E87040" rx="2" opacity="1.00"/>
<text x="328.0" y="48.0" text-anchor="start" font-family="sans-serif" font-size="11" font-weight="normal" fill="#333333">virtual-thread</text>
<line x1="240.0" y1="70.0" x2="240.0" y2="228.0" stroke="#E0E0E0" stroke-width="1.0" stroke-dasharray="4,3"/>
<text x="240.0" y="246.0" text-anchor="middle" font-family="sans-serif" font-size="10" font-weight="normal" fill="#888888">0.00</text>
<line x1="340.0" y1="70.0" x2="340.0" y2="228.0" stroke="#E0E0E0" stroke-width="1.0" stroke-dasharray="4,3"/>
<text x="340.0" y="246.0" text-anchor="middle" font-family="sans-serif" font-size="10" font-weight="normal" fill="#888888">30.8</text>
<line x1="440.0" y1="70.0" x2="440.0" y2="228.0" stroke="#E0E0E0" stroke-width="1.0" stroke-dasharray="4,3"/>
<text x="440.0" y="246.0" text-anchor="middle" font-family="sans-serif" font-size="10" font-weight="normal" fill="#888888">61.6</text>
<line x1="540.0" y1="70.0" x2="540.0" y2="228.0" stroke="#E0E0E0" stroke-width="1.0" stroke-dasharray="4,3"/>
<text x="540.0" y="246.0" text-anchor="middle" font-family="sans-serif" font-size="10" font-weight="normal" fill="#888888">92.4</text>
<line x1="640.0" y1="70.0" x2="640.0" y2="228.0" stroke="#E0E0E0" stroke-width="1.0" stroke-dasharray="4,3"/>
<text x="640.0" y="246.0" text-anchor="middle" font-family="sans-serif" font-size="10" font-weight="normal" fill="#888888">123.2</text>
<line x1="740.0" y1="70.0" x2="740.0" y2="228.0" stroke="#E0E0E0" stroke-width="1.0" stroke-dasharray="4,3"/>
<text x="740.0" y="246.0" text-anchor="middle" font-family="sans-serif" font-size="10" font-weight="normal" fill="#888888">154.0</text>
<line x1="240.0" y1="228.0" x2="740.0" y2="228.0" stroke="#BBBBBB" stroke-width="1.5"/>
<text x="232.0" y="88.0" text-anchor="end" font-family="sans-serif" font-size="11" font-weight="normal" fill="#333333">edgeBatchInsert</text>
<rect x="240.0" y="70.0" width="434.8" height="28.0" fill="#7B68EE" rx="3" opacity="0.88"/>
<line x1="659.7" y1="84.0" x2="689.9" y2="84.0" stroke="#555555" stroke-width="1.5"/>
<line x1="659.7" y1="81.0" x2="659.7" y2="87.0" stroke="#555555" stroke-width="1.5"/>
<line x1="689.9" y1="81.0" x2="689.9" y2="87.0" stroke="#555555" stroke-width="1.5"/>
<text x="693.9" y="88.0" text-anchor="start" font-family="sans-serif" font-size="10" font-weight="normal" fill="#555555">133.9</text>
<text x="232.0" y="126.0" text-anchor="end" font-family="sans-serif" font-size="11" font-weight="normal" fill="#333333">edgeLoopInsert</text>
<rect x="240.0" y="108.0" width="313.4" height="28.0" fill="#7B68EE" rx="3" opacity="0.88"/>
<line x1="540.7" y1="122.0" x2="566.1" y2="122.0" stroke="#555555" stroke-width="1.5"/>
<line x1="540.7" y1="119.0" x2="540.7" y2="125.0" stroke="#555555" stroke-width="1.5"/>
<line x1="566.1" y1="119.0" x2="566.1" y2="125.0" stroke="#555555" stroke-width="1.5"/>
<text x="570.1" y="126.0" text-anchor="start" font-family="sans-serif" font-size="10" font-weight="normal" fill="#555555">96.5</text>
<text x="232.0" y="164.0" text-anchor="end" font-family="sans-serif" font-size="11" font-weight="normal" fill="#333333">vertexBatchInsert</text>
<rect x="240.0" y="146.0" width="63.1" height="28.0" fill="#7B68EE" rx="3" opacity="0.88"/>
<line x1="298.5" y1="160.0" x2="307.7" y2="160.0" stroke="#555555" stroke-width="1.5"/>
<line x1="298.5" y1="157.0" x2="298.5" y2="163.0" stroke="#555555" stroke-width="1.5"/>
<line x1="307.7" y1="157.0" x2="307.7" y2="163.0" stroke="#555555" stroke-width="1.5"/>
<text x="311.7" y="164.0" text-anchor="start" font-family="sans-serif" font-size="10" font-weight="normal" fill="#555555">19.4</text>
<text x="232.0" y="202.0" text-anchor="end" font-family="sans-serif" font-size="11" font-weight="normal" fill="#333333">vertexLoopInsert</text>
<rect x="240.0" y="184.0" width="63.7" height="28.0" fill="#7B68EE" rx="3" opacity="0.88"/>
<line x1="299.8" y1="198.0" x2="307.5" y2="198.0" stroke="#555555" stroke-width="1.5"/>
<line x1="299.8" y1="195.0" x2="299.8" y2="201.0" stroke="#555555" stroke-width="1.5"/>
<line x1="307.5" y1="195.0" x2="307.5" y2="201.0" stroke="#555555" stroke-width="1.5"/>
<text x="311.5" y="202.0" text-anchor="start" font-family="sans-serif" font-size="10" font-weight="normal" fill="#555555">19.6</text>
</svg>