<svg xmlns="http://www.w3.org/2000/svg" width="1378" height="1024" viewBox="0 0 1378 1024" role="img" aria-label="graph Architecture">
<defs>
  <filter id="shadow" x="-8%" y="-8%" width="116%" height="116%"><feDropShadow dx="0" dy="8" stdDeviation="9" flood-color="#1f2937" flood-opacity="0.10"/></filter>
  <marker id="openArrow" markerWidth="12" markerHeight="10" refX="10" refY="5" orient="auto" markerUnits="strokeWidth"><path d="M 1 1 L 10 5 L 1 9" fill="none" stroke="#758297" stroke-width="1.8" stroke-linecap="round" stroke-linejoin="round"/></marker>
  <marker id="inherit" markerWidth="14" markerHeight="12" refX="12" refY="6" orient="auto" markerUnits="strokeWidth"><path d="M 0 1 L 12 6 L 0 11 Z" fill="#ffffff" stroke="#758297" stroke-width="1.8"/></marker>
  <style>
    .canvas{fill:#f7f9fc}.frame{fill:#fff;stroke:#d8e0ea;stroke-width:1.5}
    .title{font-family:"Architects Daughter","Comic Sans MS","Comic Sans",cursive;font-size:43px;font-weight:400;fill:#102033}
    .subtitle{font-family:"Comic Sans MS","Comic Sans","Comic Neue",Arial,sans-serif;font-size:15px;font-weight:400;fill:#536273}
    .label{font-family:"Architects Daughter","Comic Sans MS","Comic Sans",cursive;font-size:25px;font-weight:400;fill:#102033}
    .smallLabel{font-family:"Architects Daughter","Comic Sans MS","Comic Sans",cursive;font-size:21px;font-weight:400;fill:#102033}
    .mono{font-family:"Comic Sans MS","Comic Sans","Comic Neue",Arial,sans-serif;font-size:12px;font-weight:400;fill:#102033}
    .small{font-family:"Comic Sans MS","Comic Sans","Comic Neue",Arial,sans-serif;font-size:12px;font-weight:400;fill:#536273}
    .strong{font-family:"Comic Sans MS","Comic Sans","Comic Neue",Arial,sans-serif;font-size:13px;font-weight:400;fill:#102033}
    .card{stroke-width:2.1;filter:url(#shadow)}.compartment{stroke-width:1.5;fill:none}
    .line{stroke:#758297;stroke-width:2.1;fill:none;marker-end:url(#openArrow)}
    .plainLine{stroke:#758297;stroke-width:2.1;fill:none}
    .dashed{stroke:#758297;stroke-width:2.1;stroke-dasharray:7 6;fill:none;marker-end:url(#openArrow)}
    .inheritLine{stroke:#758297;stroke-width:2.2;fill:none;marker-end:url(#inherit)}
    .implLine{stroke:#758297;stroke-width:2.2;stroke-dasharray:8 7;fill:none;marker-end:url(#inherit)}
  </style>
</defs>
<rect class="canvas" width="1378" height="1024"/>
<rect class="frame" x="32" y="28" width="1314" height="968" rx="28"/>
<text class="title" x="66" y="82">graph Architecture</text>
<text class="subtitle" x="70" y="118">Architecture nodes and edges from the original Mermaid source</text>
<path class="line" d="M1006 884 C1006 884 706 884 706 884"/>
<path class="line" d="M1040 552 C1040 718 672 718 672 884"/>
<path class="line" d="M1190 612 C1190 635 1190 635 1190 658"/>
<path class="line" d="M1040 552 C1040 635 1006 635 1006 718"/>
<path class="line" d="M1040 552 C1040 635 672 635 672 718"/>
<path class="line" d="M1040 552 C1040 635 338 635 338 718"/>
<path class="line" d="M1006 386 C1006 469 1040 469 1040 552"/>
<path class="line" d="M672 386 C672 469 1040 469 1040 552"/>
<path class="line" d="M1040 386 C1040 469 1006 469 1006 552"/>
<path class="line" d="M1040 386 C1040 469 672 469 672 552"/>
<path class="line" d="M1040 386 C1040 469 338 469 338 552"/>
<path class="line" d="M672 220 C672 303 1040 303 1040 386"/>
<path class="line" d="M672 220 C672 303 706 303 706 386"/>
<path class="line" d="M522 280 C522 303 522 303 522 326"/>
<path class="line" d="M338 386 C338 303 372 303 372 220"/>
<path class="line" d="M1040 220 C1040 220 672 220 672 220"/>
<path class="line" d="M706 220 C706 220 672 220 672 220"/>
<path class="line" d="M338 220 C338 220 372 220 372 220"/>
<g transform="translate(48,170)">
  <rect class="card" x="0" y="0" width="280" height="100" rx="14" fill="#E8F3FF" stroke="#5B8DEF"/>
  <text class="smallLabel" x="140" y="45" text-anchor="middle">Application code</text>
</g>
<g transform="translate(382,170)">
  <rect class="card" x="0" y="0" width="280" height="100" rx="14" fill="#EAF7EF" stroke="#58A978"/>
  <text class="smallLabel" x="140" y="45" text-anchor="middle">graph-core API</text>
</g>
<g transform="translate(716,170)">
  <rect class="card" x="0" y="0" width="280" height="100" rx="14" fill="#FFF3D9" stroke="#D6A441"/>
  <text class="smallLabel" x="140" y="45" text-anchor="middle">Ktor GraphPlugin</text>
</g>
<g transform="translate(1050,170)">
  <rect class="card" x="0" y="0" width="280" height="100" rx="14" fill="#FDECEF" stroke="#DC6B82"/>
  <text class="smallLabel" x="140" y="33" text-anchor="middle">Spring Boot</text>
<text class="smallLabel" x="140" y="59" text-anchor="middle">AutoConfiguration</text>
</g>
<g transform="translate(48,336)">
  <rect class="card" x="0" y="0" width="280" height="100" rx="14" fill="#E9F7F6" stroke="#45A7A1"/>
  <text class="smallLabel" x="140" y="45" text-anchor="middle">Example modules</text>
</g>
<g transform="translate(382,336)">
  <rect class="card" x="0" y="0" width="280" height="100" rx="14" fill="#F1ECFF" stroke="#8A72D6"/>
  <text class="smallLabel" x="140" y="45" text-anchor="middle">GraphOperations</text>
</g>
<g transform="translate(716,336)">
  <rect class="card" x="0" y="0" width="280" height="100" rx="14" fill="#F7F1E7" stroke="#B88A44"/>
  <text class="smallLabel" x="140" y="33" text-anchor="middle">Graph Suspend</text>
<text class="smallLabel" x="140" y="59" text-anchor="middle">Operations</text>
</g>
<g transform="translate(1050,336)">
  <rect class="card" x="0" y="0" width="280" height="100" rx="14" fill="#EEF6D9" stroke="#8BA84D"/>
  <text class="smallLabel" x="140" y="33" text-anchor="middle">Optional</text>
<text class="smallLabel" x="140" y="59" text-anchor="middle">capabilities</text>
</g>
<g transform="translate(48,502)">
  <rect class="card" x="0" y="0" width="280" height="100" rx="14" fill="#E8F3FF" stroke="#5B8DEF"/>
  <text class="smallLabel" x="140" y="45" text-anchor="middle">Schema manager</text>
</g>
<g transform="translate(382,502)">
  <rect class="card" x="0" y="0" width="280" height="100" rx="14" fill="#EAF7EF" stroke="#58A978"/>
  <text class="smallLabel" x="140" y="45" text-anchor="middle">Merge / upsert</text>
</g>
<g transform="translate(716,502)">
  <rect class="card" x="0" y="0" width="280" height="100" rx="14" fill="#FFF3D9" stroke="#D6A441"/>
  <text class="smallLabel" x="140" y="45" text-anchor="middle">Transaction DSL</text>
</g>
<g transform="translate(1050,502)">
  <rect class="card" x="0" y="0" width="280" height="100" rx="14" fill="#FDECEF" stroke="#DC6B82"/>
  <text class="smallLabel" x="140" y="33" text-anchor="middle">Backend</text>
<text class="smallLabel" x="140" y="59" text-anchor="middle">implementations</text>
</g>
<g transform="translate(48,668)">
  <rect class="card" x="0" y="0" width="280" height="100" rx="14" fill="#E9F7F6" stroke="#45A7A1"/>
  <text class="smallLabel" x="140" y="45" text-anchor="middle">Neo4j</text>
</g>
<g transform="translate(382,668)">
  <rect class="card" x="0" y="0" width="280" height="100" rx="14" fill="#F1ECFF" stroke="#8A72D6"/>
  <text class="smallLabel" x="140" y="45" text-anchor="middle">Memgraph</text>
</g>
<g transform="translate(716,668)">
  <rect class="card" x="0" y="0" width="280" height="100" rx="14" fill="#F7F1E7" stroke="#B88A44"/>
  <text class="smallLabel" x="140" y="45" text-anchor="middle">Apache AGE</text>
</g>
<g transform="translate(1050,668)">
  <rect class="card" x="0" y="0" width="280" height="100" rx="14" fill="#EEF6D9" stroke="#8BA84D"/>
  <text class="smallLabel" x="140" y="33" text-anchor="middle">TinkerGraph /</text>
<text class="smallLabel" x="140" y="59" text-anchor="middle">TinkerPop</text>
</g>
<g transform="translate(382,834)">
  <rect class="card" x="0" y="0" width="280" height="100" rx="14" fill="#E8F3FF" stroke="#5B8DEF"/>
  <text class="smallLabel" x="140" y="45" text-anchor="middle">FalkorDB</text>
</g>
<g transform="translate(716,834)">
  <rect class="card" x="0" y="0" width="280" height="100" rx="14" fill="#EAF7EF" stroke="#58A978"/>
  <text class="smallLabel" x="140" y="33" text-anchor="middle">graph-io</text>
<text class="smallLabel" x="140" y="59" text-anchor="middle">import/export</text>
</g>
</svg>
