<?xml version="1.0" encoding="UTF-8" standalone="no"?>
<!DOCTYPE svg PUBLIC "-//W3C//DTD SVG 1.1//EN"
 "http://www.w3.org/Graphics/SVG/1.1/DTD/svg11.dtd">
<!-- Generated by graphviz version 15.0.0 (20260523.1842)
 -->
<!-- Title: bom&#45;architecture&#45;01 Pages: 1 -->
<svg width="2144pt" height="265pt"
 viewBox="0.00 0.00 2144.00 265.00" xmlns="http://www.w3.org/2000/svg" xmlns:xlink="http://www.w3.org/1999/xlink">
<g id="graph0" class="graph" transform="scale(1 1) rotate(0) translate(4 260.5)">
<title>bom&#45;architecture&#45;01</title>
<text xml:space="preserve" text-anchor="middle" x="1067.99" y="-7.2" font-family="Times,serif" font-size="14.00">bom Architecture</text>
<!-- n0 -->
<g id="node1" class="node">
<title>n0</title>
<path fill="#e8f3ff" stroke="#5b8def" d="M161.85,-256.5C161.85,-256.5 66,-256.5 66,-256.5 60,-256.5 54,-250.5 54,-244.5 54,-244.5 54,-232.5 54,-232.5 54,-226.5 60,-220.5 66,-220.5 66,-220.5 161.85,-220.5 161.85,-220.5 167.85,-220.5 173.85,-226.5 173.85,-232.5 173.85,-232.5 173.85,-244.5 173.85,-244.5 173.85,-250.5 167.85,-256.5 161.85,-256.5"/>
<text xml:space="preserve" text-anchor="middle" x="113.92" y="-235.72" font-family="Comic Sans MS" font-size="12.00">Consumer Project</text>
</g>
<!-- n1 -->
<g id="node2" class="node">
<title>n1</title>
<path fill="#eaf7ef" stroke="#58a978" d="M215.85,-158.5C215.85,-158.5 12,-158.5 12,-158.5 6,-158.5 0,-152.5 0,-146.5 0,-146.5 0,-134.5 0,-134.5 0,-128.5 6,-122.5 12,-122.5 12,-122.5 215.85,-122.5 215.85,-122.5 221.85,-122.5 227.85,-128.5 227.85,-134.5 227.85,-134.5 227.85,-146.5 227.85,-146.5 227.85,-152.5 221.85,-158.5 215.85,-158.5"/>
<text xml:space="preserve" text-anchor="middle" x="113.92" y="-137.72" font-family="Comic Sans MS" font-size="12.00">bluetape4k&#45;graph&#45;bom java&#45;platform</text>
</g>
<!-- n0&#45;&gt;n1 -->
<g id="edge1" class="edge">
<title>n0&#45;&gt;n1</title>
<path fill="none" stroke="#758297" stroke-width="2" d="M113.92,-220.07C113.92,-220.07 113.92,-169.88 113.92,-169.88"/>
<polygon fill="#758297" stroke="#758297" stroke-width="2" points="116.73,-169.88 113.93,-161.88 111.13,-169.88 116.73,-169.88"/>
</g>
<!-- n9 -->
<g id="node10" class="node">
<title>n9</title>
<path fill="#eaf7ef" stroke="#58a978" d="M150.6,-60.5C150.6,-60.5 77.25,-60.5 77.25,-60.5 71.25,-60.5 65.25,-54.5 65.25,-48.5 65.25,-48.5 65.25,-36.5 65.25,-36.5 65.25,-30.5 71.25,-24.5 77.25,-24.5 77.25,-24.5 150.6,-24.5 150.6,-24.5 156.6,-24.5 162.6,-30.5 162.6,-36.5 162.6,-36.5 162.6,-48.5 162.6,-48.5 162.6,-54.5 156.6,-60.5 150.6,-60.5"/>
<text xml:space="preserve" text-anchor="middle" x="113.92" y="-39.73" font-family="Comic Sans MS" font-size="12.00">graph&#45;io&#45;core</text>
</g>
<!-- n1&#45;&gt;n9 -->
<g id="edge3" class="edge">
<title>n1&#45;&gt;n9</title>
<path fill="none" stroke="#758297" stroke-width="2" d="M113.92,-122.07C113.92,-122.07 113.92,-71.88 113.92,-71.88"/>
<polygon fill="#758297" stroke="#758297" stroke-width="2" points="116.73,-71.88 113.93,-63.88 111.13,-71.88 116.73,-71.88"/>
</g>
<!-- n2 -->
<g id="node3" class="node">
<title>n2</title>
<path fill="#fff3d9" stroke="#d6a441" d="M354.47,-158.5C354.47,-158.5 295.37,-158.5 295.37,-158.5 289.37,-158.5 283.37,-152.5 283.37,-146.5 283.37,-146.5 283.37,-134.5 283.37,-134.5 283.37,-128.5 289.37,-122.5 295.37,-122.5 295.37,-122.5 354.47,-122.5 354.47,-122.5 360.47,-122.5 366.47,-128.5 366.47,-134.5 366.47,-134.5 366.47,-146.5 366.47,-146.5 366.47,-152.5 360.47,-158.5 354.47,-158.5"/>
<text xml:space="preserve" text-anchor="middle" x="324.92" y="-137.72" font-family="Comic Sans MS" font-size="12.00">graph&#45;core</text>
</g>
<!-- n3 -->
<g id="node4" class="node">
<title>n3</title>
<path fill="#fdecef" stroke="#dc6b82" d="M357.47,-256.5C357.47,-256.5 292.37,-256.5 292.37,-256.5 286.37,-256.5 280.37,-250.5 280.37,-244.5 280.37,-244.5 280.37,-232.5 280.37,-232.5 280.37,-226.5 286.37,-220.5 292.37,-220.5 292.37,-220.5 357.47,-220.5 357.47,-220.5 363.47,-220.5 369.47,-226.5 369.47,-232.5 369.47,-232.5 369.47,-244.5 369.47,-244.5 369.47,-250.5 363.47,-256.5 357.47,-256.5"/>
<text xml:space="preserve" text-anchor="middle" x="324.92" y="-235.72" font-family="Comic Sans MS" font-size="12.00">graph&#45;neo4j</text>
</g>
<!-- n3&#45;&gt;n2 -->
<g id="edge2" class="edge">
<title>n3&#45;&gt;n2</title>
<path fill="none" stroke="#758297" stroke-width="2" d="M324.92,-220.07C324.92,-220.07 324.92,-169.88 324.92,-169.88"/>
<polygon fill="#758297" stroke="#758297" stroke-width="2" points="327.73,-169.88 324.93,-161.88 322.13,-169.88 327.73,-169.88"/>
</g>
<!-- n4 -->
<g id="node5" class="node">
<title>n4</title>
<path fill="#e9f7f6" stroke="#45a7a1" d="M528.22,-256.5C528.22,-256.5 437.62,-256.5 437.62,-256.5 431.62,-256.5 425.62,-250.5 425.62,-244.5 425.62,-244.5 425.62,-232.5 425.62,-232.5 425.62,-226.5 431.62,-220.5 437.62,-220.5 437.62,-220.5 528.22,-220.5 528.22,-220.5 534.22,-220.5 540.22,-226.5 540.22,-232.5 540.22,-232.5 540.22,-244.5 540.22,-244.5 540.22,-250.5 534.22,-256.5 528.22,-256.5"/>
<text xml:space="preserve" text-anchor="middle" x="482.92" y="-235.72" font-family="Comic Sans MS" font-size="12.00">graph&#45;memgraph</text>
</g>
<!-- n5 -->
<g id="node6" class="node">
<title>n5</title>
<path fill="#f1ecff" stroke="#8a72d6" d="M661.47,-256.5C661.47,-256.5 608.38,-256.5 608.38,-256.5 602.38,-256.5 596.38,-250.5 596.38,-244.5 596.38,-244.5 596.38,-232.5 596.38,-232.5 596.38,-226.5 602.38,-220.5 608.38,-220.5 608.38,-220.5 661.47,-220.5 661.47,-220.5 667.47,-220.5 673.47,-226.5 673.47,-232.5 673.47,-232.5 673.47,-244.5 673.47,-244.5 673.47,-250.5 667.47,-256.5 661.47,-256.5"/>
<text xml:space="preserve" text-anchor="middle" x="634.92" y="-235.72" font-family="Comic Sans MS" font-size="12.00">graph&#45;age</text>
</g>
<!-- n6 -->
<g id="node7" class="node">
<title>n6</title>
<path fill="#f4f7fa" stroke="#8ca0b8" d="M830.1,-256.5C830.1,-256.5 741.75,-256.5 741.75,-256.5 735.75,-256.5 729.75,-250.5 729.75,-244.5 729.75,-244.5 729.75,-232.5 729.75,-232.5 729.75,-226.5 735.75,-220.5 741.75,-220.5 741.75,-220.5 830.1,-220.5 830.1,-220.5 836.1,-220.5 842.1,-226.5 842.1,-232.5 842.1,-232.5 842.1,-244.5 842.1,-244.5 842.1,-250.5 836.1,-256.5 830.1,-256.5"/>
<text xml:space="preserve" text-anchor="middle" x="785.92" y="-235.72" font-family="Comic Sans MS" font-size="12.00">graph&#45;tinkerpop</text>
</g>
<!-- n7 -->
<g id="node8" class="node">
<title>n7</title>
<path fill="#fff0e4" stroke="#d98a4a" d="M991.72,-256.5C991.72,-256.5 910.12,-256.5 910.12,-256.5 904.12,-256.5 898.12,-250.5 898.12,-244.5 898.12,-244.5 898.12,-232.5 898.12,-232.5 898.12,-226.5 904.12,-220.5 910.12,-220.5 910.12,-220.5 991.72,-220.5 991.72,-220.5 997.72,-220.5 1003.72,-226.5 1003.72,-232.5 1003.72,-232.5 1003.72,-244.5 1003.72,-244.5 1003.72,-250.5 997.72,-256.5 991.72,-256.5"/>
<text xml:space="preserve" text-anchor="middle" x="950.92" y="-235.72" font-family="Comic Sans MS" font-size="12.00">graph&#45;falkordb</text>
</g>
<!-- n8 -->
<g id="node9" class="node">
<title>n8</title>
<path fill="#e8f3ff" stroke="#5b8def" d="M1136.47,-256.5C1136.47,-256.5 1071.38,-256.5 1071.38,-256.5 1065.38,-256.5 1059.38,-250.5 1059.38,-244.5 1059.38,-244.5 1059.38,-232.5 1059.38,-232.5 1059.38,-226.5 1065.38,-220.5 1071.38,-220.5 1071.38,-220.5 1136.47,-220.5 1136.47,-220.5 1142.47,-220.5 1148.47,-226.5 1148.47,-232.5 1148.47,-232.5 1148.47,-244.5 1148.47,-244.5 1148.47,-250.5 1142.47,-256.5 1136.47,-256.5"/>
<text xml:space="preserve" text-anchor="middle" x="1103.92" y="-235.72" font-family="Comic Sans MS" font-size="12.00">serialization</text>
</g>
<!-- n10 -->
<g id="node11" class="node">
<title>n10</title>
<path fill="#fff3d9" stroke="#d6a441" d="M1283.22,-256.5C1283.22,-256.5 1216.62,-256.5 1216.62,-256.5 1210.62,-256.5 1204.62,-250.5 1204.62,-244.5 1204.62,-244.5 1204.62,-232.5 1204.62,-232.5 1204.62,-226.5 1210.62,-220.5 1216.62,-220.5 1216.62,-220.5 1283.22,-220.5 1283.22,-220.5 1289.22,-220.5 1295.22,-226.5 1295.22,-232.5 1295.22,-232.5 1295.22,-244.5 1295.22,-244.5 1295.22,-250.5 1289.22,-256.5 1283.22,-256.5"/>
<text xml:space="preserve" text-anchor="middle" x="1249.92" y="-235.72" font-family="Comic Sans MS" font-size="12.00">graph&#45;io&#45;csv</text>
</g>
<!-- n11 -->
<g id="node12" class="node">
<title>n11</title>
<path fill="#fdecef" stroke="#dc6b82" d="M1454.97,-256.5C1454.97,-256.5 1362.88,-256.5 1362.88,-256.5 1356.88,-256.5 1350.88,-250.5 1350.88,-244.5 1350.88,-244.5 1350.88,-232.5 1350.88,-232.5 1350.88,-226.5 1356.88,-220.5 1362.88,-220.5 1362.88,-220.5 1454.97,-220.5 1454.97,-220.5 1460.97,-220.5 1466.97,-226.5 1466.97,-232.5 1466.97,-232.5 1466.97,-244.5 1466.97,-244.5 1466.97,-250.5 1460.97,-256.5 1454.97,-256.5"/>
<text xml:space="preserve" text-anchor="middle" x="1408.92" y="-235.72" font-family="Comic Sans MS" font-size="12.00">graph&#45;io&#45;graphml</text>
</g>
<!-- n12 -->
<g id="node13" class="node">
<title>n12</title>
<path fill="#e9f7f6" stroke="#45a7a1" d="M1632.6,-256.5C1632.6,-256.5 1535.25,-256.5 1535.25,-256.5 1529.25,-256.5 1523.25,-250.5 1523.25,-244.5 1523.25,-244.5 1523.25,-232.5 1523.25,-232.5 1523.25,-226.5 1529.25,-220.5 1535.25,-220.5 1535.25,-220.5 1632.6,-220.5 1632.6,-220.5 1638.6,-220.5 1644.6,-226.5 1644.6,-232.5 1644.6,-232.5 1644.6,-244.5 1644.6,-244.5 1644.6,-250.5 1638.6,-256.5 1632.6,-256.5"/>
<text xml:space="preserve" text-anchor="middle" x="1583.92" y="-235.72" font-family="Comic Sans MS" font-size="12.00">graph&#45;io&#45;jackson2</text>
</g>
<!-- n13 -->
<g id="node14" class="node">
<title>n13</title>
<path fill="#f1ecff" stroke="#8a72d6" d="M1809.6,-256.5C1809.6,-256.5 1712.25,-256.5 1712.25,-256.5 1706.25,-256.5 1700.25,-250.5 1700.25,-244.5 1700.25,-244.5 1700.25,-232.5 1700.25,-232.5 1700.25,-226.5 1706.25,-220.5 1712.25,-220.5 1712.25,-220.5 1809.6,-220.5 1809.6,-220.5 1815.6,-220.5 1821.6,-226.5 1821.6,-232.5 1821.6,-232.5 1821.6,-244.5 1821.6,-244.5 1821.6,-250.5 1815.6,-256.5 1809.6,-256.5"/>
<text xml:space="preserve" text-anchor="middle" x="1760.92" y="-235.72" font-family="Comic Sans MS" font-size="12.00">graph&#45;io&#45;jackson3</text>
</g>
<!-- n14 -->
<g id="node15" class="node">
<title>n14</title>
<path fill="#f4f7fa" stroke="#8ca0b8" d="M1945.97,-256.5C1945.97,-256.5 1889.88,-256.5 1889.88,-256.5 1883.88,-256.5 1877.88,-250.5 1877.88,-244.5 1877.88,-244.5 1877.88,-232.5 1877.88,-232.5 1877.88,-226.5 1883.88,-220.5 1889.88,-220.5 1889.88,-220.5 1945.97,-220.5 1945.97,-220.5 1951.97,-220.5 1957.97,-226.5 1957.97,-232.5 1957.97,-232.5 1957.97,-244.5 1957.97,-244.5 1957.97,-250.5 1951.97,-256.5 1945.97,-256.5"/>
<text xml:space="preserve" text-anchor="middle" x="1917.92" y="-235.72" font-family="Comic Sans MS" font-size="12.00">graph&#45;okio</text>
</g>
<!-- n15 -->
<g id="node16" class="node">
<title>n15</title>
<path fill="#fff0e4" stroke="#d98a4a" d="M2123.98,-256.5C2123.98,-256.5 2025.88,-256.5 2025.88,-256.5 2019.88,-256.5 2013.88,-250.5 2013.88,-244.5 2013.88,-244.5 2013.88,-232.5 2013.88,-232.5 2013.88,-226.5 2019.88,-220.5 2025.88,-220.5 2025.88,-220.5 2123.98,-220.5 2123.98,-220.5 2129.98,-220.5 2135.98,-226.5 2135.98,-232.5 2135.98,-232.5 2135.98,-244.5 2135.98,-244.5 2135.98,-250.5 2129.98,-256.5 2123.98,-256.5"/>
<text xml:space="preserve" text-anchor="middle" x="2074.93" y="-235.72" font-family="Comic Sans MS" font-size="12.00">graph&#45;spring&#45;boot</text>
</g>
<!-- n16 -->
<g id="node17" class="node">
<title>n16</title>
<path fill="#e8f3ff" stroke="#5b8def" d="M2104.48,-158.5C2104.48,-158.5 2045.38,-158.5 2045.38,-158.5 2039.38,-158.5 2033.38,-152.5 2033.38,-146.5 2033.38,-146.5 2033.38,-134.5 2033.38,-134.5 2033.38,-128.5 2039.38,-122.5 2045.38,-122.5 2045.38,-122.5 2104.48,-122.5 2104.48,-122.5 2110.48,-122.5 2116.48,-128.5 2116.48,-134.5 2116.48,-134.5 2116.48,-146.5 2116.48,-146.5 2116.48,-152.5 2110.48,-158.5 2104.48,-158.5"/>
<text xml:space="preserve" text-anchor="middle" x="2074.93" y="-137.72" font-family="Comic Sans MS" font-size="12.00">graph&#45;ktor</text>
</g>
<!-- n15&#45;&gt;n16 -->
<g id="edge4" class="edge">
<title>n15&#45;&gt;n16</title>
<path fill="none" stroke="#758297" stroke-width="2" d="M2074.93,-220.07C2074.93,-220.07 2074.93,-169.88 2074.93,-169.88"/>
<polygon fill="#758297" stroke="#758297" stroke-width="2" points="2077.73,-169.88 2074.93,-161.88 2072.13,-169.88 2077.73,-169.88"/>
</g>
</g>
</svg>
