<svg xmlns="http://www.w3.org/2000/svg" width="1532" height="1892" viewBox="0 0 1532 1892" role="img" aria-label="neighbors ()">
<defs>
  <filter id="shadow" x="-8%" y="-8%" width="116%" height="116%"><feDropShadow dx="0" dy="8" stdDeviation="9" flood-color="#1f2937" flood-opacity="0.10"/></filter>
  <marker id="openArrow" markerWidth="12" markerHeight="10" refX="10" refY="5" orient="auto" markerUnits="strokeWidth"><path d="M 1 1 L 10 5 L 1 9" fill="none" stroke="#758297" stroke-width="1.8" stroke-linecap="round" stroke-linejoin="round"/></marker>
  <marker id="inherit" markerWidth="14" markerHeight="12" refX="12" refY="6" orient="auto" markerUnits="strokeWidth"><path d="M 0 1 L 12 6 L 0 11 Z" fill="#ffffff" stroke="#758297" stroke-width="1.8"/></marker>
  <style>
    .canvas{fill:#f7f9fc}.frame{fill:#fff;stroke:#d8e0ea;stroke-width:1.5}
    .title{font-family:"Architects Daughter","Comic Sans MS","Comic Sans",cursive;font-size:43px;font-weight:400;fill:#102033}
    .subtitle{font-family:"Comic Sans MS","Comic Sans","Comic Neue",Arial,sans-serif;font-size:15px;font-weight:400;fill:#536273}
    .label{font-family:"Architects Daughter","Comic Sans MS","Comic Sans",cursive;font-size:25px;font-weight:400;fill:#102033}
    .smallLabel{font-family:"Architects Daughter","Comic Sans MS","Comic Sans",cursive;font-size:21px;font-weight:400;fill:#102033}
    .mono{font-family:"Comic Sans MS","Comic Sans","Comic Neue",Arial,sans-serif;font-size:12px;font-weight:400;fill:#102033}
    .small{font-family:"Comic Sans MS","Comic Sans","Comic Neue",Arial,sans-serif;font-size:12px;font-weight:400;fill:#536273}
    .strong{font-family:"Comic Sans MS","Comic Sans","Comic Neue",Arial,sans-serif;font-size:13px;font-weight:400;fill:#102033}
    .card{stroke-width:2.1;filter:url(#shadow)}.compartment{stroke-width:1.5;fill:none}
    .line{stroke:#758297;stroke-width:2.1;fill:none;marker-end:url(#openArrow)}
    .plainLine{stroke:#758297;stroke-width:2.1;fill:none}
    .dashed{stroke:#758297;stroke-width:2.1;stroke-dasharray:7 6;fill:none;marker-end:url(#openArrow)}
    .inheritLine{stroke:#758297;stroke-width:2.2;fill:none;marker-end:url(#inherit)}
    .implLine{stroke:#758297;stroke-width:2.2;stroke-dasharray:8 7;fill:none;marker-end:url(#inherit)}
  </style>
</defs>
<rect class="canvas" width="1532" height="1892"/>
<rect class="frame" x="32" y="28" width="1468" height="1836" rx="28"/>
<text class="title" x="66" y="82">neighbors ()</text>
<text class="subtitle" x="70" y="118">Sequence messages from the original Mermaid source</text>
<rect class="card" x="1.5" y="166" width="277" height="72" rx="20" fill="#E8F3FF" stroke="#5B8DEF"/>
<text class="smallLabel" x="140" y="209" text-anchor="middle">User</text>
<line class="lifeline" x1="140" y1="252" x2="140" y2="1832" stroke="#b7c2d1" stroke-width="2" stroke-dasharray="10 10"/>
<rect class="card" x="418.83333333333326" y="166" width="277" height="72" rx="20" fill="#EAF7EF" stroke="#58A978"/>
<text class="smallLabel" x="557.3333333333333" y="209" text-anchor="middle">AgeGraphOperations</text>
<line class="lifeline" x1="557.3333333333333" y1="252" x2="557.3333333333333" y2="1832" stroke="#b7c2d1" stroke-width="2" stroke-dasharray="10 10"/>
<rect class="card" x="836.1666666666666" y="166" width="277" height="72" rx="20" fill="#FFF3D9" stroke="#D6A441"/>
<text class="smallLabel" x="974.6666666666666" y="209" text-anchor="middle">AgeSql</text>
<line class="lifeline" x1="974.6666666666666" y1="252" x2="974.6666666666666" y2="1832" stroke="#b7c2d1" stroke-width="2" stroke-dasharray="10 10"/>
<rect class="card" x="1253.5" y="166" width="277" height="72" rx="20" fill="#FDECEF" stroke="#DC6B82"/>
<text class="smallLabel" x="1392" y="209" text-anchor="middle">PostgreSQL AGE</text>
<line class="lifeline" x1="1392" y1="252" x2="1392" y2="1832" stroke="#b7c2d1" stroke-width="2" stroke-dasharray="10 10"/>
<rect x="141.16666666666663" y="286" width="415" height="40" rx="12" fill="#ffffff" opacity="0.97"/>
<text class="strong" x="159.16666666666663" y="313" text-anchor="start">1. neighbors(startId, KNOWS, OUTGOING, depth=2)</text>
<path class="line" d="M140 344 L557.3333333333333 344"/>
<rect x="538" y="396" width="456" height="40" rx="12" fill="#ffffff" opacity="0.97"/>
<text class="strong" x="556" y="423" text-anchor="start">2. neighbors(graphName, startId, KNOWS, OUTGOING, 2)</text>
<path class="line" d="M557.3333333333333 454 L974.6666666666666 454"/>
<rect x="70" y="506" width="1392" height="40" rx="16" fill="#F7F1E7" stroke="#B88A44" stroke-width="1.6" opacity="0.96"/>
<text class="strong" x="92" y="533" text-anchor="start">ALT: OUTGOING</text>
<rect x="819.1666666666666" y="574" width="407" height="40" rx="12" fill="#ffffff" opacity="0.97"/>
<text class="strong" x="837.1666666666666" y="601" text-anchor="start">4. Pattern = (start)-[:KNOWS*1..2]-&gt;(neighbor)</text>
<path class="line" d="M974.6666666666666 632 C1038.6666666666665 632 1038.6666666666665 666 974.6666666666666 666"/>
<rect x="70" y="704" width="1392" height="40" rx="16" fill="#F7F1E7" stroke="#B88A44" stroke-width="1.6" opacity="0.96"/>
<text class="strong" x="92" y="731" text-anchor="start">ELSE: INCOMING</text>
<rect x="819.1666666666666" y="772" width="407" height="40" rx="12" fill="#ffffff" opacity="0.97"/>
<text class="strong" x="837.1666666666666" y="799" text-anchor="start">6. Pattern = (start)&lt;-[:KNOWS*1..2]-(neighbor)</text>
<path class="line" d="M974.6666666666666 830 C1038.6666666666665 830 1038.6666666666665 864 974.6666666666666 864"/>
<rect x="70" y="902" width="1392" height="40" rx="16" fill="#F7F1E7" stroke="#B88A44" stroke-width="1.6" opacity="0.96"/>
<text class="strong" x="92" y="929" text-anchor="start">ELSE: BOTH</text>
<rect x="823.1666666666666" y="970" width="399" height="40" rx="12" fill="#ffffff" opacity="0.97"/>
<text class="strong" x="841.1666666666666" y="997" text-anchor="start">8. Pattern = (start)-[:KNOWS*1..2]-(neighbor)</text>
<path class="line" d="M974.6666666666666 1028 C1038.6666666666665 1028 1038.6666666666665 1062 974.6666666666666 1062"/>
<rect x="714.1666666666666" y="1100" width="617" height="62" rx="12" fill="#ffffff" opacity="0.97"/>
<text class="strong" x="732.1666666666666" y="1127" text-anchor="start">9. Build Cypher: MATCH pattern WHERE id(start) = startId RETURN DISTINCT</text>
<text class="strong" x="732.1666666666666" y="1149" text-anchor="start">neighbor</text>
<path class="line" d="M974.6666666666666 1180 C1038.6666666666665 1180 1038.6666666666665 1214 974.6666666666666 1214"/>
<rect x="661" y="1252" width="210" height="40" rx="12" fill="#ffffff" opacity="0.97"/>
<text class="strong" x="679" y="1279" text-anchor="start">10. SQL</text>
<path class="dashed" d="M974.6666666666666 1310 L557.3333333333333 1310"/>
<rect x="869.6666666666666" y="1362" width="210" height="40" rx="12" fill="#ffffff" opacity="0.97"/>
<text class="strong" x="887.6666666666666" y="1389" text-anchor="start">11. exec(SQL )</text>
<path class="line" d="M557.3333333333333 1420 L1392 1420"/>
<rect x="847.6666666666666" y="1472" width="254" height="40" rx="12" fill="#ffffff" opacity="0.97"/>
<text class="strong" x="865.6666666666666" y="1499" text-anchor="start">12. List of agtype vertices</text>
<path class="dashed" d="M1392 1530 L557.3333333333333 1530"/>
<rect x="462.33333333333326" y="1582" width="286" height="40" rx="12" fill="#ffffff" opacity="0.97"/>
<text class="strong" x="480.33333333333326" y="1609" text-anchor="start">13. parseVertex for each result</text>
<path class="line" d="M557.3333333333333 1640 C621.3333333333333 1640 621.3333333333333 1674 557.3333333333333 1674"/>
<rect x="243.66666666666663" y="1712" width="210" height="40" rx="12" fill="#ffffff" opacity="0.97"/>
<text class="strong" x="261.66666666666663" y="1739" text-anchor="start">14. List~GraphVertex~</text>
<path class="dashed" d="M557.3333333333333 1770 L140 1770"/>
</svg>
