<svg xmlns="http://www.w3.org/2000/svg" width="2562" height="2286" viewBox="0 0 2562 2286" role="img" aria-label="createEdge">
<defs>
  <filter id="shadow" x="-8%" y="-8%" width="116%" height="116%"><feDropShadow dx="0" dy="8" stdDeviation="9" flood-color="#1f2937" flood-opacity="0.10"/></filter>
  <marker id="openArrow" markerWidth="12" markerHeight="10" refX="10" refY="5" orient="auto" markerUnits="strokeWidth"><path d="M 1 1 L 10 5 L 1 9" fill="none" stroke="#758297" stroke-width="1.8" stroke-linecap="round" stroke-linejoin="round"/></marker>
  <marker id="inherit" markerWidth="14" markerHeight="12" refX="12" refY="6" orient="auto" markerUnits="strokeWidth"><path d="M 0 1 L 12 6 L 0 11 Z" fill="#ffffff" stroke="#758297" stroke-width="1.8"/></marker>
  <style>
    .canvas{fill:#f7f9fc}.frame{fill:#fff;stroke:#d8e0ea;stroke-width:1.5}
    .title{font-family:"Architects Daughter","Comic Sans MS","Comic Sans",cursive;font-size:43px;font-weight:400;fill:#102033}
    .subtitle{font-family:"Comic Sans MS","Comic Sans","Comic Neue",Arial,sans-serif;font-size:15px;font-weight:400;fill:#536273}
    .label{font-family:"Architects Daughter","Comic Sans MS","Comic Sans",cursive;font-size:25px;font-weight:400;fill:#102033}
    .smallLabel{font-family:"Architects Daughter","Comic Sans MS","Comic Sans",cursive;font-size:21px;font-weight:400;fill:#102033}
    .mono{font-family:"Comic Sans MS","Comic Sans","Comic Neue",Arial,sans-serif;font-size:12px;font-weight:400;fill:#102033}
    .small{font-family:"Comic Sans MS","Comic Sans","Comic Neue",Arial,sans-serif;font-size:12px;font-weight:400;fill:#536273}
    .strong{font-family:"Comic Sans MS","Comic Sans","Comic Neue",Arial,sans-serif;font-size:13px;font-weight:400;fill:#102033}
    .card{stroke-width:2.1;filter:url(#shadow)}.compartment{stroke-width:1.5;fill:none}
    .line{stroke:#758297;stroke-width:2.1;fill:none;marker-end:url(#openArrow)}
    .plainLine{stroke:#758297;stroke-width:2.1;fill:none}
    .dashed{stroke:#758297;stroke-width:2.1;stroke-dasharray:7 6;fill:none;marker-end:url(#openArrow)}
    .inheritLine{stroke:#758297;stroke-width:2.2;fill:none;marker-end:url(#inherit)}
    .implLine{stroke:#758297;stroke-width:2.2;stroke-dasharray:8 7;fill:none;marker-end:url(#inherit)}
  </style>
</defs>
<rect class="canvas" width="2562" height="2286"/>
<rect class="frame" x="32" y="28" width="2498" height="2230" rx="28"/>
<text class="title" x="66" y="82">createEdge</text>
<text class="subtitle" x="70" y="118">Sequence messages from the original Mermaid source</text>
<rect class="card" x="-5" y="166" width="290" height="72" rx="20" fill="#E8F3FF" stroke="#5B8DEF"/>
<text class="smallLabel" x="140" y="209" text-anchor="middle">User</text>
<line class="lifeline" x1="140" y1="252" x2="140" y2="2226" stroke="#b7c2d1" stroke-width="2" stroke-dasharray="10 10"/>
<rect class="card" x="375.33333333333326" y="166" width="290" height="72" rx="20" fill="#EAF7EF" stroke="#58A978"/>
<text class="smallLabel" x="520.3333333333333" y="209" text-anchor="middle">AgeGraphOperations</text>
<line class="lifeline" x1="520.3333333333333" y1="252" x2="520.3333333333333" y2="2226" stroke="#b7c2d1" stroke-width="2" stroke-dasharray="10 10"/>
<rect class="card" x="755.6666666666666" y="166" width="290" height="72" rx="20" fill="#FFF3D9" stroke="#D6A441"/>
<text class="smallLabel" x="900.6666666666666" y="209" text-anchor="middle">Dispatchers.IO</text>
<line class="lifeline" x1="900.6666666666666" y1="252" x2="900.6666666666666" y2="2226" stroke="#b7c2d1" stroke-width="2" stroke-dasharray="10 10"/>
<rect class="card" x="1136" y="166" width="290" height="72" rx="20" fill="#FDECEF" stroke="#DC6B82"/>
<text class="smallLabel" x="1281" y="209" text-anchor="middle">Exposed Transaction</text>
<line class="lifeline" x1="1281" y1="252" x2="1281" y2="2226" stroke="#b7c2d1" stroke-width="2" stroke-dasharray="10 10"/>
<rect class="card" x="1516.3333333333333" y="166" width="290" height="72" rx="20" fill="#E9F7F6" stroke="#45A7A1"/>
<text class="smallLabel" x="1661.3333333333333" y="209" text-anchor="middle">PostgreSQL AGE</text>
<line class="lifeline" x1="1661.3333333333333" y1="252" x2="1661.3333333333333" y2="2226" stroke="#b7c2d1" stroke-width="2" stroke-dasharray="10 10"/>
<rect class="card" x="1896.6666666666665" y="166" width="290" height="72" rx="20" fill="#F1ECFF" stroke="#8A72D6"/>
<text class="smallLabel" x="2041.6666666666665" y="209" text-anchor="middle">AgeTypeParser</text>
<line class="lifeline" x1="2041.6666666666665" y1="252" x2="2041.6666666666665" y2="2226" stroke="#b7c2d1" stroke-width="2" stroke-dasharray="10 10"/>
<rect class="card" x="2277" y="166" width="290" height="72" rx="20" fill="#F7F1E7" stroke="#B88A44"/>
<text class="smallLabel" x="2422" y="209" text-anchor="middle">GraphEdge</text>
<line class="lifeline" x1="2422" y1="252" x2="2422" y2="2226" stroke="#b7c2d1" stroke-width="2" stroke-dasharray="10 10"/>
<rect x="146.66666666666663" y="286" width="367" height="40" rx="12" fill="#ffffff" opacity="0.97"/>
<text class="strong" x="164.66666666666663" y="313" text-anchor="start">1. createEdge(fromId, toId, KNOWS, props)</text>
<path class="line" d="M140 344 L520.3333333333333 344"/>
<rect x="461.33333333333326" y="396" width="214" height="40" rx="12" fill="#ffffff" opacity="0.97"/>
<text class="strong" x="479.33333333333326" y="423" text-anchor="start">2. Convert IDs to Long</text>
<path class="line" d="M520.3333333333333 454 C584.3333333333333 454 584.3333333333333 488 520.3333333333333 488"/>
<rect x="571.5" y="526" width="278" height="40" rx="12" fill="#ffffff" opacity="0.97"/>
<text class="strong" x="589.5" y="553" text-anchor="start">3. withContext(Dispatchers.IO)</text>
<path class="line" d="M520.3333333333333 584 L900.6666666666666 584"/>
<rect x="975.8333333333333" y="636" width="230" height="40" rx="12" fill="#ffffff" opacity="0.97"/>
<text class="strong" x="993.8333333333333" y="663" text-anchor="start">4. transaction(database)</text>
<path class="line" d="M900.6666666666666 694 L1281 694"/>
<rect x="1366.1666666666665" y="746" width="210" height="40" rx="12" fill="#ffffff" opacity="0.97"/>
<text class="strong" x="1384.1666666666665" y="773" text-anchor="start">5. exec(LOAD age)</text>
<path class="line" d="M1281 804 L1661.3333333333333 804"/>
<rect x="1366.1666666666665" y="856" width="210" height="40" rx="12" fill="#ffffff" opacity="0.97"/>
<text class="strong" x="1384.1666666666665" y="883" text-anchor="start">6. OK</text>
<path class="dashed" d="M1661.3333333333333 914 L1281 914"/>
<rect x="1356.1666666666665" y="966" width="230" height="40" rx="12" fill="#ffffff" opacity="0.97"/>
<text class="strong" x="1374.1666666666665" y="993" text-anchor="start">7. exec(SET search_path)</text>
<path class="line" d="M1281 1024 L1661.3333333333333 1024"/>
<rect x="1366.1666666666665" y="1076" width="210" height="40" rx="12" fill="#ffffff" opacity="0.97"/>
<text class="strong" x="1384.1666666666665" y="1103" text-anchor="start">8. OK</text>
<path class="dashed" d="M1661.3333333333333 1134 L1281 1134"/>
<rect x="1328.1666666666665" y="1186" width="286" height="40" rx="12" fill="#ffffff" opacity="0.97"/>
<text class="strong" x="1346.1666666666665" y="1213" text-anchor="start">9. exec(AgeSql.createEdge(...))</text>
<path class="line" d="M1281 1244 L1661.3333333333333 1244"/>
<rect x="1239.1666666666665" y="1296" width="464" height="40" rx="12" fill="#ffffff" opacity="0.97"/>
<text class="strong" x="1257.1666666666665" y="1323" text-anchor="start">10. agtype result: {id: 456, label: KNOWS, ...}::edge</text>
<path class="dashed" d="M1661.3333333333333 1354 L1281 1354"/>
<rect x="1546.3333333333333" y="1406" width="230" height="40" rx="12" fill="#ffffff" opacity="0.97"/>
<text class="strong" x="1564.3333333333333" y="1433" text-anchor="start">11. parseEdge(agtypeStr)</text>
<path class="line" d="M1281 1464 L2041.6666666666665 1464"/>
<rect x="1974.6666666666665" y="1516" width="230" height="40" rx="12" fill="#ffffff" opacity="0.97"/>
<text class="strong" x="1992.6666666666665" y="1543" text-anchor="start">12. Remove ::edge suffix</text>
<path class="line" d="M2041.6666666666665 1574 C2105.6666666666665 1574 2105.6666666666665 1608 2041.6666666666665 1608"/>
<rect x="1984.6666666666665" y="1646" width="210" height="40" rx="12" fill="#ffffff" opacity="0.97"/>
<text class="strong" x="2002.6666666666665" y="1673" text-anchor="start">13. Parse JSON</text>
<path class="line" d="M2041.6666666666665 1704 C2105.6666666666665 1704 2105.6666666666665 1738 2041.6666666666665 1738"/>
<rect x="2003.833333333333" y="1776" width="456" height="40" rx="12" fill="#ffffff" opacity="0.97"/>
<text class="strong" x="2021.833333333333" y="1803" text-anchor="start">14. GraphEdge(id, label, startId, endId, properties)</text>
<path class="line" d="M2041.6666666666665 1834 L2422 1834"/>
<rect x="2126.833333333333" y="1886" width="210" height="40" rx="12" fill="#ffffff" opacity="0.97"/>
<text class="strong" x="2144.833333333333" y="1913" text-anchor="start">15. GraphEdge</text>
<path class="dashed" d="M2422 1944 L2041.6666666666665 1944"/>
<rect x="1176" y="1996" width="210" height="40" rx="12" fill="#ffffff" opacity="0.97"/>
<text class="strong" x="1194" y="2023" text-anchor="start">16. GraphEdge</text>
<path class="dashed" d="M2041.6666666666665 2054 L520.3333333333333 2054"/>
<rect x="225.16666666666663" y="2106" width="210" height="40" rx="12" fill="#ffffff" opacity="0.97"/>
<text class="strong" x="243.16666666666663" y="2133" text-anchor="start">17. GraphEdge</text>
<path class="dashed" d="M520.3333333333333 2164 L140 2164"/>
</svg>
