<svg xmlns="http://www.w3.org/2000/svg" width="1440" height="900" viewBox="0 0 1440 900">

    <defs>
      <filter id="softShadow" x="-8%" y="-8%" width="116%" height="116%">
        <feDropShadow dx="0" dy="8" stdDeviation="6" flood-color="#26384A" flood-opacity="0.10"/>
      </filter>
      <marker id="arrow" viewBox="0 0 10 10" refX="9" refY="5" markerWidth="8" markerHeight="8" orient="auto-start-reverse">
        <path d="M 0 0 L 10 5 L 0 10 z" fill="#6F8396"/>
      </marker>
    </defs>
    <style>
      .title { font-family: 'Architects Daughter', cursive; font-size: 48px; fill: #36424F; }
      .subtitle { font-family: 'Comic Mono', monospace; font-size: 20px; fill: #667085; }
      .label { font-family: 'Architects Daughter', cursive; font-size: 27px; fill: #36424F; }
      .small { font-family: 'Comic Mono', monospace; font-size: 18px; fill: #536273; }
      .tiny { font-family: 'Comic Mono', monospace; font-size: 15px; fill: #667085; }
      .card { stroke: #D7E0EA; stroke-width: 2; filter: url(#softShadow); }
      .line { stroke: #6F8396; stroke-width: 3; fill: none; marker-end: url(#arrow); }
      .thin { stroke: #A5B5C4; stroke-width: 2; fill: none; marker-end: url(#arrow); }
      .dash { stroke: #A5B5C4; stroke-width: 2; stroke-dasharray: 8 8; fill: none; marker-end: url(#arrow); }
    </style>

<rect x="0" y="0" width="1440" height="900" fill="#FFFDF8"/>
<rect x="24" y="24" width="1392" height="852" rx="22" fill="none" stroke="#7DAED3" stroke-width="4"/>
<circle cx="1376" cy="64" r="15" fill="#FFD5B8" opacity="0.95"/>
<circle cx="1336" cy="64" r="15" fill="#BFE8D2" opacity="0.95"/>
<circle cx="1296" cy="64" r="15" fill="#CBBCEB" opacity="0.95"/>
<text x="72" y="82" class="title">Age Architecture 10 Architecture</text>
<text x="74" y="118" class="subtitle">Current README and module source model</text>
<text x="720.0" y="852" text-anchor="middle" class="tiny">github.com/bluetape4k/bluetape4k-graph | bluetape4k-graph | Age Architecture 10 Architecture</text>
<rect x="78.0" y="210" width="409.3333333333333" height="360" rx="14" fill="#B7DBF4" class="card"/>
<text x="100.0" y="250" class="label">Kotlin API</text>
<text x="102.0" y="286" class="small">GraphOperations</text>
<text x="102.0" y="314" class="small">Transactions</text>
<text x="102.0" y="342" class="small">Schema DSL</text>
<rect x="515.3333333333333" y="210" width="409.3333333333333" height="360" rx="14" fill="#BFE8D2" class="card"/>
<text x="537.3333333333333" y="250" class="label">AGE adapter</text>
<text x="539.3333333333333" y="286" class="small">Cypher over SQL</text>
<text x="539.3333333333333" y="314" class="small">Exposed/JDBC</text>
<text x="539.3333333333333" y="342" class="small">Agtype mapping</text>
<path d="M 491.33333333333326 390 C 499.33333333333326 390, 499.33333333333326 390, 507.33333333333326 390" class="line"/>
<rect x="470.33333333333326" y="347.0" width="58" height="31" rx="9" fill="#FFFDF8" opacity="0.94"/>
<text x="499.33333333333326" y="372.0" text-anchor="middle" class="tiny">maps</text>
<rect x="952.6666666666666" y="210" width="409.3333333333333" height="360" rx="14" fill="#FFD5B8" class="card"/>
<text x="974.6666666666666" y="250" class="label">PostgreSQL AGE</text>
<text x="976.6666666666666" y="286" class="small">graphs</text>
<text x="976.6666666666666" y="314" class="small">vertices</text>
<text x="976.6666666666666" y="342" class="small">edges</text>
<path d="M 928.6666666666666 390 C 936.6666666666666 390, 936.6666666666666 390, 944.6666666666666 390" class="line"/>
<rect x="907.6666666666666" y="347.0" width="58" height="31" rx="9" fill="#FFFDF8" opacity="0.94"/>
<text x="936.6666666666666" y="372.0" text-anchor="middle" class="tiny">maps</text>
<rect x="164" y="650" width="1112" height="120" rx="14" fill="#B9E7E2" class="card"/>
<text x="186" y="690" class="label">Source truth</text>
<text x="188" y="726" class="small">README module contract, AGENTS layout, Kotlin source names, benchmark result tables</text>
</svg>
