<svg xmlns="http://www.w3.org/2000/svg" width="1500" height="860" viewBox="0 0 1500 860">

    <defs>
      <filter id="softShadow" x="-8%" y="-8%" width="116%" height="116%">
        <feDropShadow dx="0" dy="8" stdDeviation="6" flood-color="#26384A" flood-opacity="0.10"/>
      </filter>
      <marker id="arrow" viewBox="0 0 10 10" refX="9" refY="5" markerWidth="8" markerHeight="8" orient="auto-start-reverse">
        <path d="M 0 0 L 10 5 L 0 10 z" fill="#6F8396"/>
      </marker>
    </defs>
    <style>
      .title { font-family: 'Architects Daughter', cursive; font-size: 48px; fill: #36424F; }
      .subtitle { font-family: 'Comic Mono', monospace; font-size: 20px; fill: #667085; }
      .label { font-family: 'Architects Daughter', cursive; font-size: 27px; fill: #36424F; }
      .small { font-family: 'Comic Mono', monospace; font-size: 18px; fill: #536273; }
      .tiny { font-family: 'Comic Mono', monospace; font-size: 15px; fill: #667085; }
      .card { stroke: #D7E0EA; stroke-width: 2; filter: url(#softShadow); }
      .line { stroke: #6F8396; stroke-width: 3; fill: none; marker-end: url(#arrow); }
      .thin { stroke: #A5B5C4; stroke-width: 2; fill: none; marker-end: url(#arrow); }
      .dash { stroke: #A5B5C4; stroke-width: 2; stroke-dasharray: 8 8; fill: none; marker-end: url(#arrow); }
    </style>

<rect x="0" y="0" width="1500" height="860" fill="#FFFDF8"/>
<rect x="24" y="24" width="1452" height="812" rx="22" fill="none" stroke="#7DAED3" stroke-width="4"/>
<circle cx="1436" cy="64" r="15" fill="#FFD5B8" opacity="0.95"/>
<circle cx="1396" cy="64" r="15" fill="#BFE8D2" opacity="0.95"/>
<circle cx="1356" cy="64" r="15" fill="#CBBCEB" opacity="0.95"/>
<text x="72" y="82" class="title">Virtual Thread Traversal Latency</text>
<text x="74" y="118" class="subtitle">Traversal operations through adapter</text>
<text x="750.0" y="812" text-anchor="middle" class="tiny">github.com/bluetape4k/bluetape4k-graph | bluetape4k-graph | Virtual Thread Traversal Latency</text>
<text x="350" y="171" class="tiny">Unit: us/op / lower is better</text>
<rect x="350" y="137" width="24" height="16" rx="5" fill="#8FC4EA"/>
<text x="384" y="151" class="tiny">Sync</text>
<rect x="540" y="137" width="24" height="16" rx="5" fill="#F4BE8D"/>
<text x="574" y="151" class="tiny">VirtualThread</text>
<text x="86" y="231" class="tiny">shortestPath</text>
<line x1="350" y1="239" x2="1390" y2="239" stroke="#E7EEF5" stroke-width="2"/>
<rect x="350" y="206" width="753.0534804591265" height="15" rx="6" fill="#8FC4EA"/>
<text x="1115.0534804591266" y="219" class="tiny">22.031</text>
<rect x="350" y="227" width="901.0306393934239" height="15" rx="6" fill="#F4BE8D"/>
<text x="1263.0306393934238" y="240" class="tiny">31.54</text>
<text x="86" y="295" class="tiny">allPaths</text>
<line x1="350" y1="303" x2="1390" y2="303" stroke="#E7EEF5" stroke-width="2"/>
<rect x="350" y="270" width="736.0090930646854" height="15" rx="6" fill="#8FC4EA"/>
<text x="1098.0090930646854" y="283" class="tiny">21.045</text>
<rect x="350" y="291" width="920.0" height="15" rx="6" fill="#F4BE8D"/>
<text x="1282.0" y="304" class="tiny">32.882</text>
</svg>
